<mxfile host="Electron" modified="2023-07-28T03:02:17.703Z" agent="Mozilla/5.0 (Windows NT 10.0; Win64; x64) AppleWebKit/537.36 (KHTML, like Gecko) draw.io/21.6.5 Chrome/114.0.5735.243 Electron/25.3.1 Safari/537.36" etag="0buoBP3XBrelKxP0mJiN" version="21.6.5" type="device">
  <diagram id="C5RBs43oDa-KdzZeNtuy" name="Page-1">
    <mxGraphModel dx="744" dy="433" grid="1" gridSize="10" guides="1" tooltips="1" connect="1" arrows="1" fold="1" page="1" pageScale="1" pageWidth="827" pageHeight="1169" math="0" shadow="0">
      <root>
        <mxCell id="WIyWlLk6GJQsqaUBKTNV-0" />
        <mxCell id="WIyWlLk6GJQsqaUBKTNV-1" parent="WIyWlLk6GJQsqaUBKTNV-0" />
        <mxCell id="len52TpWG3xVsXUbDwFH-1" style="edgeStyle=orthogonalEdgeStyle;rounded=0;orthogonalLoop=1;jettySize=auto;html=1;" edge="1" parent="WIyWlLk6GJQsqaUBKTNV-1" source="WIyWlLk6GJQsqaUBKTNV-3" target="len52TpWG3xVsXUbDwFH-0">
          <mxGeometry relative="1" as="geometry" />
        </mxCell>
        <mxCell id="WIyWlLk6GJQsqaUBKTNV-3" value="游戏版本更新" style="rounded=1;whiteSpace=wrap;html=1;fontSize=12;glass=0;strokeWidth=1;shadow=0;" parent="WIyWlLk6GJQsqaUBKTNV-1" vertex="1">
          <mxGeometry x="150" y="80" width="120" height="40" as="geometry" />
        </mxCell>
        <mxCell id="len52TpWG3xVsXUbDwFH-16" style="edgeStyle=orthogonalEdgeStyle;rounded=0;orthogonalLoop=1;jettySize=auto;html=1;entryX=0;entryY=0.5;entryDx=0;entryDy=0;dashed=1;" edge="1" parent="WIyWlLk6GJQsqaUBKTNV-1" source="WIyWlLk6GJQsqaUBKTNV-6" target="len52TpWG3xVsXUbDwFH-11">
          <mxGeometry relative="1" as="geometry">
            <Array as="points">
              <mxPoint x="30" y="585" />
              <mxPoint x="30" y="400" />
            </Array>
          </mxGeometry>
        </mxCell>
        <mxCell id="len52TpWG3xVsXUbDwFH-24" value="其他问题" style="edgeLabel;html=1;align=center;verticalAlign=middle;resizable=0;points=[];" vertex="1" connectable="0" parent="len52TpWG3xVsXUbDwFH-16">
          <mxGeometry x="-0.635" relative="1" as="geometry">
            <mxPoint as="offset" />
          </mxGeometry>
        </mxCell>
        <mxCell id="len52TpWG3xVsXUbDwFH-22" value="游戏崩溃报错/词条缺漏" style="edgeStyle=orthogonalEdgeStyle;rounded=0;orthogonalLoop=1;jettySize=auto;html=1;dashed=1;" edge="1" parent="WIyWlLk6GJQsqaUBKTNV-1" source="WIyWlLk6GJQsqaUBKTNV-6" target="len52TpWG3xVsXUbDwFH-3">
          <mxGeometry x="-0.5265" relative="1" as="geometry">
            <Array as="points">
              <mxPoint x="550" y="600" />
              <mxPoint x="550" y="230" />
            </Array>
            <mxPoint as="offset" />
          </mxGeometry>
        </mxCell>
        <mxCell id="len52TpWG3xVsXUbDwFH-23" value="内容质量问题" style="edgeStyle=orthogonalEdgeStyle;rounded=0;orthogonalLoop=1;jettySize=auto;html=1;dashed=1;" edge="1" parent="WIyWlLk6GJQsqaUBKTNV-1" source="WIyWlLk6GJQsqaUBKTNV-6" target="len52TpWG3xVsXUbDwFH-7">
          <mxGeometry x="-0.3151" relative="1" as="geometry">
            <Array as="points">
              <mxPoint x="500" y="570" />
              <mxPoint x="500" y="400" />
            </Array>
            <mxPoint as="offset" />
          </mxGeometry>
        </mxCell>
        <mxCell id="len52TpWG3xVsXUbDwFH-26" value="通过" style="edgeStyle=orthogonalEdgeStyle;rounded=0;orthogonalLoop=1;jettySize=auto;html=1;" edge="1" parent="WIyWlLk6GJQsqaUBKTNV-1" source="WIyWlLk6GJQsqaUBKTNV-6" target="len52TpWG3xVsXUbDwFH-25">
          <mxGeometry relative="1" as="geometry" />
        </mxCell>
        <mxCell id="WIyWlLk6GJQsqaUBKTNV-6" value="测试" style="rhombus;whiteSpace=wrap;html=1;shadow=0;fontFamily=Helvetica;fontSize=12;align=center;strokeWidth=1;spacing=6;spacingTop=-4;" parent="WIyWlLk6GJQsqaUBKTNV-1" vertex="1">
          <mxGeometry x="150" y="545" width="100" height="80" as="geometry" />
        </mxCell>
        <mxCell id="len52TpWG3xVsXUbDwFH-4" style="edgeStyle=orthogonalEdgeStyle;rounded=0;orthogonalLoop=1;jettySize=auto;html=1;" edge="1" parent="WIyWlLk6GJQsqaUBKTNV-1" source="len52TpWG3xVsXUbDwFH-0" target="len52TpWG3xVsXUbDwFH-3">
          <mxGeometry relative="1" as="geometry" />
        </mxCell>
        <mxCell id="len52TpWG3xVsXUbDwFH-6" style="edgeStyle=orthogonalEdgeStyle;rounded=0;orthogonalLoop=1;jettySize=auto;html=1;" edge="1" parent="WIyWlLk6GJQsqaUBKTNV-1" source="len52TpWG3xVsXUbDwFH-0" target="len52TpWG3xVsXUbDwFH-2">
          <mxGeometry relative="1" as="geometry" />
        </mxCell>
        <mxCell id="len52TpWG3xVsXUbDwFH-12" style="edgeStyle=orthogonalEdgeStyle;rounded=0;orthogonalLoop=1;jettySize=auto;html=1;" edge="1" parent="WIyWlLk6GJQsqaUBKTNV-1" source="len52TpWG3xVsXUbDwFH-0" target="len52TpWG3xVsXUbDwFH-11">
          <mxGeometry relative="1" as="geometry">
            <Array as="points">
              <mxPoint x="210" y="250" />
              <mxPoint x="118" y="250" />
            </Array>
          </mxGeometry>
        </mxCell>
        <mxCell id="len52TpWG3xVsXUbDwFH-0" value="更新 Original 文件夹内容" style="rounded=1;whiteSpace=wrap;html=1;fontSize=12;glass=0;strokeWidth=1;shadow=0;" vertex="1" parent="WIyWlLk6GJQsqaUBKTNV-1">
          <mxGeometry x="150" y="160" width="120" height="40" as="geometry" />
        </mxCell>
        <mxCell id="len52TpWG3xVsXUbDwFH-9" style="edgeStyle=orthogonalEdgeStyle;rounded=0;orthogonalLoop=1;jettySize=auto;html=1;" edge="1" parent="WIyWlLk6GJQsqaUBKTNV-1" source="len52TpWG3xVsXUbDwFH-2" target="len52TpWG3xVsXUbDwFH-7">
          <mxGeometry relative="1" as="geometry" />
        </mxCell>
        <mxCell id="len52TpWG3xVsXUbDwFH-2" value="csv文件使用工具同步到 ParaTranz" style="rounded=1;whiteSpace=wrap;html=1;fontSize=12;glass=0;strokeWidth=1;shadow=0;" vertex="1" parent="WIyWlLk6GJQsqaUBKTNV-1">
          <mxGeometry x="240" y="300" width="136" height="40" as="geometry" />
        </mxCell>
        <mxCell id="len52TpWG3xVsXUbDwFH-20" style="edgeStyle=orthogonalEdgeStyle;rounded=0;orthogonalLoop=1;jettySize=auto;html=1;" edge="1" parent="WIyWlLk6GJQsqaUBKTNV-1" source="len52TpWG3xVsXUbDwFH-3" target="len52TpWG3xVsXUbDwFH-19">
          <mxGeometry relative="1" as="geometry" />
        </mxCell>
        <mxCell id="len52TpWG3xVsXUbDwFH-3" value="制作内核文件对照表并查找新增词条" style="rounded=1;whiteSpace=wrap;html=1;fontSize=12;glass=0;strokeWidth=1;shadow=0;" vertex="1" parent="WIyWlLk6GJQsqaUBKTNV-1">
          <mxGeometry x="390" y="210" width="136" height="40" as="geometry" />
        </mxCell>
        <mxCell id="len52TpWG3xVsXUbDwFH-10" style="edgeStyle=orthogonalEdgeStyle;rounded=0;orthogonalLoop=1;jettySize=auto;html=1;" edge="1" parent="WIyWlLk6GJQsqaUBKTNV-1" source="len52TpWG3xVsXUbDwFH-7" target="len52TpWG3xVsXUbDwFH-8">
          <mxGeometry relative="1" as="geometry" />
        </mxCell>
        <mxCell id="len52TpWG3xVsXUbDwFH-15" style="edgeStyle=orthogonalEdgeStyle;rounded=0;orthogonalLoop=1;jettySize=auto;html=1;" edge="1" parent="WIyWlLk6GJQsqaUBKTNV-1" source="len52TpWG3xVsXUbDwFH-7" target="WIyWlLk6GJQsqaUBKTNV-6">
          <mxGeometry relative="1" as="geometry" />
        </mxCell>
        <mxCell id="len52TpWG3xVsXUbDwFH-7" value="ParaTranz 汉化" style="rounded=1;whiteSpace=wrap;html=1;fontSize=12;glass=0;strokeWidth=1;shadow=0;" vertex="1" parent="WIyWlLk6GJQsqaUBKTNV-1">
          <mxGeometry x="310" y="380" width="136" height="40" as="geometry" />
        </mxCell>
        <mxCell id="len52TpWG3xVsXUbDwFH-13" style="edgeStyle=orthogonalEdgeStyle;rounded=0;orthogonalLoop=1;jettySize=auto;html=1;" edge="1" parent="WIyWlLk6GJQsqaUBKTNV-1" source="len52TpWG3xVsXUbDwFH-8" target="WIyWlLk6GJQsqaUBKTNV-6">
          <mxGeometry relative="1" as="geometry" />
        </mxCell>
        <mxCell id="len52TpWG3xVsXUbDwFH-8" value="ParaTranz 校对" style="rounded=1;whiteSpace=wrap;html=1;fontSize=12;glass=0;strokeWidth=1;shadow=0;" vertex="1" parent="WIyWlLk6GJQsqaUBKTNV-1">
          <mxGeometry x="310" y="480" width="136" height="40" as="geometry" />
        </mxCell>
        <mxCell id="len52TpWG3xVsXUbDwFH-14" style="edgeStyle=orthogonalEdgeStyle;rounded=0;orthogonalLoop=1;jettySize=auto;html=1;" edge="1" parent="WIyWlLk6GJQsqaUBKTNV-1" source="len52TpWG3xVsXUbDwFH-11" target="WIyWlLk6GJQsqaUBKTNV-6">
          <mxGeometry relative="1" as="geometry">
            <Array as="points">
              <mxPoint x="118" y="500" />
              <mxPoint x="200" y="500" />
            </Array>
          </mxGeometry>
        </mxCell>
        <mxCell id="len52TpWG3xVsXUbDwFH-11" value="其他文件汉化及移植" style="rounded=1;whiteSpace=wrap;html=1;fontSize=12;glass=0;strokeWidth=1;shadow=0;" vertex="1" parent="WIyWlLk6GJQsqaUBKTNV-1">
          <mxGeometry x="50" y="380" width="136" height="40" as="geometry" />
        </mxCell>
        <mxCell id="len52TpWG3xVsXUbDwFH-21" style="edgeStyle=orthogonalEdgeStyle;rounded=0;orthogonalLoop=1;jettySize=auto;html=1;" edge="1" parent="WIyWlLk6GJQsqaUBKTNV-1" source="len52TpWG3xVsXUbDwFH-19" target="len52TpWG3xVsXUbDwFH-7">
          <mxGeometry relative="1" as="geometry" />
        </mxCell>
        <mxCell id="len52TpWG3xVsXUbDwFH-19" value="内核jar使用工具同步到 ParaTranz" style="rounded=1;whiteSpace=wrap;html=1;fontSize=12;glass=0;strokeWidth=1;shadow=0;" vertex="1" parent="WIyWlLk6GJQsqaUBKTNV-1">
          <mxGeometry x="390" y="300" width="136" height="40" as="geometry" />
        </mxCell>
        <mxCell id="len52TpWG3xVsXUbDwFH-25" value="发布正式汉化" style="rounded=1;whiteSpace=wrap;html=1;fontSize=12;glass=0;strokeWidth=1;shadow=0;" vertex="1" parent="WIyWlLk6GJQsqaUBKTNV-1">
          <mxGeometry x="132" y="670" width="136" height="40" as="geometry" />
        </mxCell>
      </root>
    </mxGraphModel>
  </diagram>
</mxfile>
